<?xml version="1.0" standalone="no"?>
<!DOCTYPE svg PUBLIC "-//W3C//DTD SVG 20010904//EN"
 "http://www.w3.org/TR/2001/REC-SVG-20010904/DTD/svg10.dtd">
<svg version="1.0" xmlns="http://www.w3.org/2000/svg"
 width="922.000000pt" height="733.000000pt" viewBox="0 0 922.000000 733.000000"
 preserveAspectRatio="xMidYMid meet">

<g transform="translate(0.000000,733.000000) scale(0.100000,-0.100000)"
fill="#000000" stroke="none">
<path d="M3996 6805 c-53 -19 -187 -148 -213 -204 -31 -66 -5 -158 56 -198 34
-23 113 -31 153 -15 28 11 176 159 194 194 21 41 15 129 -13 166 -42 56 -115
80 -177 57z"/>
<path d="M4760 6808 c-26 -9 -148 -124 -484 -457 -246 -245 -461 -466 -477
-490 -72 -112 -1 -250 129 -251 58 0 85 16 167 100 76 78 110 100 150 100 79
0 130 -83 94 -153 -6 -12 -402 -413 -879 -892 -558 -559 -871 -879 -874 -895
-15 -71 -9 -105 24 -144 55 -62 171 -79 235 -35 18 13 169 160 336 327 167
168 318 313 334 323 72 45 155 -3 155 -89 0 -37 -12 -52 -150 -187 -61 -60
-125 -129 -141 -152 -60 -86 -43 -176 41 -220 53 -28 143 -31 180 -7 14 9 159
150 322 312 l297 295 47 -6 c63 -7 94 -42 94 -106 l0 -44 -282 -284 c-156
-156 -289 -296 -297 -311 -36 -67 -8 -164 59 -209 37 -25 115 -31 153 -12 12
6 285 274 607 595 l585 584 49 0 c41 0 52 -5 77 -31 33 -35 39 -90 13 -124 -8
-11 -358 -364 -779 -785 -688 -690 -765 -769 -775 -808 -13 -50 -6 -93 22
-140 22 -36 83 -72 121 -72 75 0 88 9 287 206 117 115 206 195 222 199 74 19
146 -61 123 -136 -4 -13 -109 -126 -234 -252 -124 -125 -234 -243 -243 -260
-32 -60 -16 -140 34 -176 64 -46 151 -53 212 -17 57 33 976 968 998 1014 23
49 22 77 -3 129 -40 84 -152 119 -228 72 -19 -11 -66 -54 -104 -95 -77 -82
-110 -104 -156 -104 -60 0 -107 72 -89 135 12 42 1242 1282 1281 1291 37 8 70
-1 104 -30 24 -21 28 -32 28 -75 l0 -50 -242 -243 c-133 -134 -247 -256 -252
-271 -15 -40 -14 -93 4 -127 35 -67 153 -101 229 -65 35 17 986 966 1006 1005
23 43 16 123 -14 174 -65 110 -160 101 -286 -29 -122 -126 -164 -145 -222
-104 -70 51 -68 123 6 199 51 52 66 84 66 144 0 48 -27 96 -73 130 -40 30
-122 28 -167 -4 -19 -13 -146 -135 -281 -271 -156 -156 -257 -249 -274 -253
-66 -17 -135 37 -135 105 0 34 9 48 74 119 84 91 106 131 106 188 0 90 -110
159 -212 132 -38 -11 -87 -56 -413 -380 -285 -283 -377 -369 -402 -374 -42
-10 -99 17 -119 57 -34 65 -32 68 373 477 206 208 381 387 389 397 7 10 14 43
14 75 0 133 -101 211 -208 161 -23 -11 -239 -220 -560 -542 -287 -289 -535
-533 -550 -543 -70 -46 -157 9 -155 97 1 19 7 43 15 54 8 11 330 338 717 726
386 388 711 720 721 738 25 40 26 118 4 155 -38 64 -118 96 -191 77 -17 -4
-103 -81 -234 -211 -191 -189 -209 -204 -242 -204 -75 0 -117 42 -117 116 0
35 13 50 219 258 233 236 249 258 238 338 -6 46 -27 73 -77 98 -48 25 -98 31
-140 18z"/>
<path d="M2395 5221 c-37 -17 -185 -168 -200 -204 -32 -77 -10 -160 54 -203
88 -58 145 -42 259 70 46 44 90 93 98 108 33 63 7 167 -54 213 -29 21 -124 31
-157 16z"/>
<path d="M3155 5214 c-42 -21 -942 -922 -960 -961 -38 -79 -1 -187 75 -217 51
-20 103 -20 145 -1 48 23 941 924 960 968 19 47 19 77 -1 128 -24 58 -83 99
-143 99 -25 0 -59 -7 -76 -16z"/>
<path d="M6685 4147 c-39 -18 -227 -203 -249 -245 -21 -41 -20 -109 3 -152 34
-65 125 -97 198 -69 33 12 228 202 250 243 8 16 16 51 16 77 1 53 -28 106 -74
133 -39 23 -108 29 -144 13z"/>
<path d="M5101 2565 c-45 -20 -227 -199 -252 -247 -56 -108 21 -238 141 -238
64 0 98 22 212 138 113 114 137 158 123 225 -21 96 -138 160 -224 122z"/>
<path d="M1646 1528 c-7 -19 -106 -533 -106 -547 0 -7 23 -11 64 -11 62 0 65
1 70 28 3 15 17 97 32 182 14 85 28 157 30 159 9 10 20 -18 65 -179 26 -93 50
-174 54 -180 3 -5 32 -10 64 -10 l58 0 52 182 c29 101 54 185 57 187 10 10 16
-16 46 -188 l31 -181 64 0 c52 0 63 3 63 16 0 18 -73 407 -93 494 l-13 55 -71
3 -72 3 -25 -83 c-13 -46 -40 -134 -58 -195 -18 -62 -37 -111 -43 -110 -5 2
-35 89 -65 193 l-56 189 -72 3 c-52 2 -73 -1 -76 -10z"/>
<path d="M2517 1534 c-4 -4 -7 -133 -7 -286 l0 -278 166 0 165 0 -3 53 -3 52
-103 3 -103 3 3 57 3 57 98 3 98 3 -3 52 -3 52 -98 3 -98 3 3 57 3 57 103 3
103 3 -3 52 -3 52 -156 3 c-85 1 -158 -1 -162 -4z"/>
<path d="M3108 1534 c-5 -4 -8 -133 -8 -287 l0 -279 133 4 c111 3 138 7 172
25 95 50 149 144 149 258 0 112 -61 207 -163 257 -37 18 -68 23 -161 26 -63 2
-118 1 -122 -4z m240 -132 c75 -34 109 -170 60 -242 -36 -52 -71 -73 -133 -78
l-55 -4 0 170 c0 169 0 171 23 175 29 5 64 -2 105 -21z"/>
<path d="M3895 1521 c-46 -20 -92 -70 -101 -107 -11 -42 3 -104 28 -131 32
-35 82 -58 172 -81 99 -26 126 -43 126 -82 0 -23 -7 -35 -32 -50 -64 -39 -159
-15 -184 47 -14 32 -16 33 -75 33 l-61 0 7 -32 c15 -70 60 -122 130 -148 40
-15 159 -15 215 0 63 17 116 75 125 135 10 63 0 94 -45 136 -30 29 -56 41
-121 58 -131 34 -143 40 -158 62 -11 19 -10 25 7 48 16 21 28 27 71 29 58 3
95 -13 106 -48 5 -17 15 -20 66 -20 68 0 71 7 39 70 -35 68 -102 100 -209 100
-42 0 -81 -7 -106 -19z"/>
<path d="M4653 1524 c-57 -21 -129 -87 -160 -147 -37 -74 -37 -174 1 -250 99
-202 383 -222 508 -36 41 62 38 69 -33 69 -56 0 -63 -3 -92 -34 -62 -66 -165
-69 -230 -8 -42 39 -57 74 -57 132 0 156 167 236 279 134 35 -31 44 -34 100
-34 35 0 61 4 61 10 0 6 -11 28 -25 49 -68 109 -224 160 -352 115z"/>
<path d="M5278 1534 c-5 -4 -8 -133 -8 -286 l0 -278 60 0 60 0 0 89 c0 50 4
92 9 95 5 3 37 -37 71 -89 l63 -95 73 0 c41 0 74 2 74 5 0 3 -32 45 -71 95
-39 49 -69 94 -67 99 1 5 19 20 38 33 106 70 102 242 -8 310 -32 20 -52 23
-162 26 -69 2 -128 0 -132 -4z m241 -120 c28 -36 27 -91 -1 -121 -17 -18 -32
-23 -75 -23 l-53 0 0 78 c0 43 3 82 7 85 3 4 28 7 54 7 39 0 51 -4 68 -26z"/>
<path d="M6065 1503 c-14 -33 -198 -485 -212 -520 -4 -10 12 -13 60 -13 l64 0
20 53 20 52 114 0 113 0 21 -52 20 -53 63 0 c56 0 63 2 58 18 -4 9 -55 136
-114 282 l-108 265 -52 3 c-51 3 -51 3 -67 -35z m104 -211 c17 -48 31 -93 31
-100 0 -8 -21 -12 -70 -12 -49 0 -70 4 -70 12 0 21 62 188 70 188 4 0 21 -39
39 -88z"/>
<path d="M6638 1534 c-5 -4 -8 -133 -8 -286 l0 -278 60 0 60 0 0 100 0 100 58
0 c102 1 160 33 193 105 39 84 12 183 -62 232 -40 26 -50 28 -168 31 -69 2
-129 0 -133 -4z m242 -119 c31 -33 31 -87 -1 -121 -18 -20 -32 -24 -76 -24
l-53 0 0 85 0 85 53 0 c44 0 58 -4 77 -25z"/>
<path d="M7247 1534 c-4 -4 -7 -133 -7 -286 l0 -278 166 0 165 0 -3 53 -3 52
-103 3 -103 3 3 57 3 57 98 3 98 3 -3 52 -3 52 -98 3 -98 3 3 57 3 57 103 3
103 3 -3 52 -3 52 -156 3 c-85 1 -158 -1 -162 -4z"/>
</g>
</svg>
